<?xml version="1.0" encoding="UTF-8"?>
<svg version="1.1" xmlns="http://www.w3.org/2000/svg" width="405" height="428">
<path d="M0 0 C3.43734063 -0.08703823 6.87439837 -0.14040272 10.3125 -0.1875 C11.28896484 -0.21263672 12.26542969 -0.23777344 13.27148438 -0.26367188 C14.20927734 -0.27333984 15.14707031 -0.28300781 16.11328125 -0.29296875 C16.97735596 -0.3086792 17.84143066 -0.32438965 18.73168945 -0.34057617 C21 0 21 0 22.78203106 1.15523052 C24.50660652 3.76732026 24.37471745 5.68984013 24.3742218 8.8092804 C24.38123611 10.02163864 24.38825043 11.23399689 24.39547729 12.48309326 C24.3880489 13.82898114 24.38031773 15.17486737 24.37231445 16.52075195 C24.37474236 17.93688728 24.37846167 19.3530209 24.38337708 20.76914978 C24.39279935 24.62112009 24.3833445 28.47283682 24.37004495 32.32478738 C24.35872297 36.36481527 24.36283916 40.40483079 24.36479187 44.44487 C24.36567572 51.24169036 24.35458471 58.03841118 24.33618164 64.83520508 C24.31510617 72.6631516 24.31148363 80.49095132 24.3177436 88.31892043 C24.3234701 95.86928682 24.31774712 103.41960214 24.30657005 110.96996117 C24.30195773 114.1709406 24.30103561 117.37188843 24.3031559 120.57287025 C24.3050611 124.36089387 24.29676644 128.14877152 24.2810955 131.93676186 C24.27492971 133.96652941 24.27832738 135.99631924 24.28216553 138.02609253 C24.22758063 147.60568303 23.17383369 156.82326819 21.38608265 166.230443 C20.91288497 169.62491808 21.63772844 171.41591497 22.9375 174.5625 C26.34597291 184.15847948 26.10437106 193.05311896 22.29296875 202.4921875 C20.60368968 205.7686744 18.52326443 208.50055344 16.07421875 211.24609375 C14.81390038 212.92709397 14.81390038 212.92709397 15.1171875 214.890625 C16.25520509 217.60978207 17.77972215 219.87580782 19.4375 222.3125 C25.31736575 231.45761907 26.59007421 240.5374926 24.3125 251.2265625 C21.2646807 261.2589677 15.63213168 268.99106028 7 275 C1.92212929 277.59395872 -3.2932962 279.50376489 -9 280 C-10.175625 280.103125 -11.35125 280.20625 -12.5625 280.3125 C-23.14005366 280.12977834 -32.13097439 275.67923125 -39.5703125 268.48046875 C-42.87827616 264.92137696 -45.11004049 261.06916483 -47.4375 256.8125 C-50.76263172 250.92731111 -53.36203833 248.40786315 -59.88848495 246.42674637 C-62.33616317 245.93205996 -64.59882524 245.8678792 -67.09674072 245.85955811 C-68.12561905 245.85384796 -69.15449738 245.84813782 -70.21455383 245.84225464 C-71.8993409 245.84057785 -71.8993409 245.84057785 -73.61816406 245.83886719 C-74.80558701 245.83390228 -75.99300995 245.82893738 -77.21641541 245.82382202 C-80.47074996 245.81172544 -83.72504862 245.80425821 -86.97940159 245.79981136 C-89.0150664 245.79687581 -91.05072564 245.79277006 -93.08638763 245.78830719 C-99.4626536 245.77463846 -105.83890676 245.76496916 -112.21518636 245.7611053 C-119.56221313 245.7566281 -126.90905353 245.73909345 -134.25602365 245.7101047 C-139.94365956 245.68844647 -145.63124321 245.67839879 -151.3189199 245.67706418 C-154.71179361 245.67601897 -158.10449199 245.67017218 -161.49732208 245.65224457 C-165.28644372 245.63516579 -169.07511316 245.63706924 -172.86425781 245.64355469 C-173.97935226 245.6343399 -175.09444672 245.62512512 -176.24333191 245.6156311 C-183.6212861 245.65513373 -189.50426013 246.35687961 -195.5625 250.9375 C-197.8652278 253.83067083 -199.56469332 256.65979901 -201.375 259.875 C-206.59677289 269.04686401 -213.08828577 275.41218206 -223.29296875 278.75 C-233.24856973 281.21748114 -243.21649109 280.32253498 -252.48828125 275.78125 C-261.91410923 269.92063157 -268.9764911 261.46318924 -271.578125 250.58203125 C-273.21874378 240.54083665 -272.22785478 230.17529146 -266.36328125 221.609375 C-265.30693563 220.27970919 -264.21421291 218.97743604 -263.07421875 217.71875 C-261.80038936 216.05935646 -261.80038936 216.05935646 -262.15234375 214.04296875 C-263.12816245 211.69111079 -264.37083171 209.86669998 -265.875 207.8125 C-271.61459067 199.32728783 -273.16865952 191.22878284 -272 181 C-271.35238935 179.0207562 -270.64347796 177.06052246 -269.875 175.125 C-268.05971286 170.32534497 -267.99145368 167.13824697 -268.86862183 162.10142517 C-270.11514918 154.13877422 -270.27019151 146.30785946 -270.22705078 138.25219727 C-270.2264848 136.74261482 -270.22680686 135.23303183 -270.22793579 133.72344971 C-270.22850303 129.6768965 -270.21685223 125.63046503 -270.20278788 121.58393979 C-270.19017409 117.33590919 -270.18910171 113.08787493 -270.18673706 108.83982849 C-270.18055327 100.81858491 -270.16418502 92.79739669 -270.14403808 84.77617735 C-270.12158181 75.63453603 -270.11066133 66.49289188 -270.10064721 57.35122979 C-270.07981557 38.56745441 -270.04429167 19.78373372 -270 1 C-262.41 1 -254.82 1 -247 1 C-246.97494385 3.73192627 -246.9498877 6.46385254 -246.92407227 9.27856445 C-246.80709804 21.9565771 -246.68594514 34.63454879 -246.5625 47.3125 C-246.55147877 48.4446909 -246.54045753 49.57688179 -246.52910233 50.7433815 C-246.2023281 84.16676407 -245.81565562 117.58434656 -245 151 C-244.34 150.67 -243.68 150.34 -243 150 C-240.40390789 149.87485206 -237.84629533 149.81482643 -235.25 149.8125 C-234.54617187 149.80025391 -233.84234375 149.78800781 -233.1171875 149.77539062 C-232.42367187 149.77345703 -231.73015625 149.77152344 -231.015625 149.76953125 C-230.07638184 149.76336792 -230.07638184 149.76336792 -229.11816406 149.75708008 C-227 150 -227 150 -221 152 C-221 133.85 -221 115.7 -221 97 C-215.39 97 -209.78 97 -204 97 C-204 116.8 -204 136.6 -204 157 C-205.98 157.33 -207.96 157.66 -210 158 C-209.52949219 158.50789062 -209.05898437 159.01578125 -208.57421875 159.5390625 C-207.64029297 160.57160156 -207.64029297 160.57160156 -206.6875 161.625 C-206.07261719 162.29789063 -205.45773438 162.97078125 -204.82421875 163.6640625 C-202.7743205 166.28898574 -201.45168765 169.01070484 -200 172 C-180.15517185 172.23362772 -160.3106228 172.40995508 -140.46470451 172.51812172 C-131.24976501 172.56968131 -122.03568004 172.6399687 -112.82128906 172.75439453 C-104.78971131 172.85408443 -96.75875235 172.91858546 -88.72657311 172.94088495 C-84.47338832 172.95392066 -80.22197368 172.98453537 -75.96935654 173.05730057 C-71.96493542 173.12526284 -67.96301 173.14610277 -63.95806694 173.13107681 C-62.48979679 173.13382463 -61.02144197 173.15367761 -59.55367088 173.19205475 C-55.19377612 173.30044446 -51.18816278 173.27559031 -47 172 C-44.05054034 168.99871272 -42.60787793 165.84111126 -41 162 C-39.70852555 160.30069152 -38.3978672 158.61292369 -37 157 C-37.886875 156.938125 -38.77375 156.87625 -39.6875 156.8125 C-43.85755217 155.78965702 -45.12809954 154.15208587 -48 151 C-49.12599345 149.91649687 -50.27295695 148.85445957 -51.4375 147.8125 C-51.97246094 147.32394531 -52.50742187 146.83539063 -53.05859375 146.33203125 C-59.3030828 142.04758303 -66.57843333 142.65124281 -73.83203125 142.609375 C-80.41377117 142.43228783 -80.41377117 142.43228783 -83.55859375 140.11328125 C-85.28026349 137.58909879 -85.92521606 136.06614139 -86 133 C-83.88146962 128.63098924 -80.80800846 125.73968081 -77.125 122.6875 C-76.55563721 122.21328613 -75.98627441 121.73907227 -75.3996582 121.25048828 C-58.54776754 107.51452029 -58.54776754 107.51452029 -49 108 C-45.05299403 108.60896663 -42.13514312 109.72981338 -39.43212891 112.75439453 C-35.24762604 118.87322981 -33.20880176 124.82303262 -31.5 132 C-31.22414063 133.02867187 -30.94828125 134.05734375 -30.6640625 135.1171875 C-29.00928725 141.82158619 -28.96153482 146.38876156 -31 153 C-30.40638672 152.76958008 -29.81277344 152.53916016 -29.20117188 152.30175781 C-20.95778335 149.21142814 -9.45056588 148.18314471 -1 151 C-1.0825 149.824375 -1.165 148.64875 -1.25 147.4375 C-1.24189422 142.82530877 0.44378748 139.74361446 3 136 C9.0344584 127.00384423 12.61567883 118.64606507 10.56640625 107.6796875 C9.10548872 102.32601457 6.84895594 99.34790158 2.5234375 95.8984375 C-1.12065835 91.35733345 -0.13917726 83.84375882 -0.11352539 78.21899414 C-0.11367142 77.36941132 -0.11381744 76.51982849 -0.1139679 75.64450073 C-0.11327554 72.85802589 -0.10551507 70.0716193 -0.09765625 67.28515625 C-0.09578966 65.34459978 -0.09436689 63.40404283 -0.09336853 61.46348572 C-0.08956233 56.37212813 -0.07974832 51.28079937 -0.06866455 46.18945312 C-0.05840956 40.98763417 -0.05386217 35.78581054 -0.04882812 30.58398438 C-0.03812427 20.3893103 -0.02107075 10.19465755 0 0 Z " fill="#FEFEFE" transform="translate(321,123)"/>
<path d="M0 0 C5.66956575 3.02310761 7.42065185 8.38056074 9.234375 14.19140625 C9.729375 16.17140625 9.729375 16.17140625 10.234375 18.19140625 C20.794375 18.19140625 31.354375 18.19140625 42.234375 18.19140625 C43.554375 14.23140625 44.874375 10.27140625 46.234375 6.19140625 C51.48683271 0.6888315 55.37471862 -2.49222847 63.046875 -3.12109375 C68.8597111 -2.94561191 73.44460999 -1.23227046 77.984375 2.37890625 C82.52930083 8.06006354 84.234375 11.79091011 84.234375 19.19140625 C94.794375 19.19140625 105.354375 19.19140625 116.234375 19.19140625 C116.564375 16.22140625 116.894375 13.25140625 117.234375 10.19140625 C120.15397334 4.46450182 125.04923397 -0.74688007 131.234375 -2.80859375 C137.55190985 -3.3829151 142.61049905 -3.006484 148.234375 0.19140625 C154.22983312 5.23304149 156.18578261 10.81647363 158.234375 18.19140625 C159.53890625 18.27777344 160.8434375 18.36414063 162.1875 18.453125 C177.59100563 19.62711873 189.97867737 22.56044964 200.984375 34.06640625 C207.39371019 42.96826067 209.54864572 52.00047694 209.53515625 62.875 C209.53944138 63.65657974 209.5437265 64.43815948 209.54814148 65.24342346 C209.55383252 66.87605832 209.55442414 68.50871851 209.55004883 70.14135742 C209.5468514 72.6474005 209.57053906 75.15230231 209.59570312 77.65820312 C209.59797285 79.2513006 209.59868114 80.84440124 209.59765625 82.4375 C209.606866 83.18639999 209.61607574 83.93529999 209.62556458 84.70689392 C209.60668945 86.80249023 209.60668945 86.80249023 209.234375 90.19140625 C205.96694863 92.3696905 205.08117532 92.43807063 201.3049593 92.42188454 C200.28183464 92.42238324 199.25870999 92.42288194 198.20458156 92.42339575 C197.07716318 92.41367912 195.9497448 92.40396249 194.78816223 92.39395142 C193.59320167 92.39157671 192.3982411 92.38920201 191.16706961 92.38675535 C187.84447479 92.37812114 184.52214754 92.36043853 181.19962513 92.3389945 C177.61889215 92.31806784 174.0381271 92.30872407 170.45735168 92.29798889 C164.25151936 92.27779123 158.04575471 92.25021984 151.83997536 92.21767044 C142.86741506 92.17061986 133.89483739 92.13464286 124.92221662 92.10138719 C110.36550494 92.04713335 95.80884664 91.98389713 81.25219727 91.91503906 C67.10996192 91.84816049 52.96771829 91.78549557 38.82543945 91.72851562 C37.95402491 91.72500318 37.08261038 91.72149074 36.18478934 91.71787186 C31.81325271 91.7002774 27.44171575 91.68276598 23.07017863 91.66529584 C-13.20848264 91.5202066 -49.48706831 91.36055118 -85.765625 91.19140625 C-85.77414883 88.21223339 -85.78030371 85.23308557 -85.78515625 82.25390625 C-85.78777466 81.42310547 -85.79039307 80.59230469 -85.79309082 79.73632812 C-85.83148701 48.15930345 -85.83148701 48.15930345 -76.765625 36.19140625 C-76.02828125 35.21300781 -75.2909375 34.23460937 -74.53125 33.2265625 C-71.75618923 29.93407389 -68.64589547 27.97788698 -64.890625 25.94140625 C-64.30410156 25.60367188 -63.71757813 25.2659375 -63.11328125 24.91796875 C-56.36226649 21.1492704 -50.03450335 19.91698457 -42.453125 19.62890625 C-37.45669047 19.60327538 -37.45669047 19.60327538 -32.765625 18.19140625 C-32.09991778 16.48498643 -31.50684208 14.74988223 -30.953125 13.00390625 C-28.52561348 6.16434823 -26.1052108 2.11099928 -19.390625 -1.18359375 C-12.25040661 -3.98321809 -6.89092219 -2.99650707 0 0 Z " fill="#010101" transform="translate(135.765625,18.80859375)"/>
<path d="M0 0 C3.43734063 -0.08703823 6.87439837 -0.14040272 10.3125 -0.1875 C11.28896484 -0.21263672 12.26542969 -0.23777344 13.27148438 -0.26367188 C14.20927734 -0.27333984 15.14707031 -0.28300781 16.11328125 -0.29296875 C16.97735596 -0.3086792 17.84143066 -0.32438965 18.73168945 -0.34057617 C21 0 21 0 22.78203106 1.15523052 C24.50660652 3.76732026 24.37471745 5.68984013 24.3742218 8.8092804 C24.38123611 10.02163864 24.38825043 11.23399689 24.39547729 12.48309326 C24.3880489 13.82898114 24.38031773 15.17486737 24.37231445 16.52075195 C24.37474236 17.93688728 24.37846167 19.3530209 24.38337708 20.76914978 C24.39279935 24.62112009 24.3833445 28.47283682 24.37004495 32.32478738 C24.35872297 36.36481527 24.36283916 40.40483079 24.36479187 44.44487 C24.36567572 51.24169036 24.35458471 58.03841118 24.33618164 64.83520508 C24.31510617 72.6631516 24.31148363 80.49095132 24.3177436 88.31892043 C24.3234701 95.86928682 24.31774712 103.41960214 24.30657005 110.96996117 C24.30195773 114.1709406 24.30103561 117.37188843 24.3031559 120.57287025 C24.3050611 124.36089387 24.29676644 128.14877152 24.2810955 131.93676186 C24.27492971 133.96652941 24.27832738 135.99631924 24.28216553 138.02609253 C24.22758063 147.60568303 23.17383369 156.82326819 21.38608265 166.230443 C20.91288497 169.62491808 21.63772844 171.41591497 22.9375 174.5625 C26.34597291 184.15847948 26.10437106 193.05311896 22.29296875 202.4921875 C20.60368968 205.7686744 18.52326443 208.50055344 16.07421875 211.24609375 C14.81390038 212.92709397 14.81390038 212.92709397 15.1171875 214.890625 C16.25520509 217.60978207 17.77972215 219.87580782 19.4375 222.3125 C25.31736575 231.45761907 26.59007421 240.5374926 24.3125 251.2265625 C21.2646807 261.2589677 15.63213168 268.99106028 7 275 C1.92212929 277.59395872 -3.2932962 279.50376489 -9 280 C-10.175625 280.103125 -11.35125 280.20625 -12.5625 280.3125 C-23.14005366 280.12977834 -32.13097439 275.67923125 -39.5703125 268.48046875 C-42.87827616 264.92137696 -45.11004049 261.06916483 -47.4375 256.8125 C-50.76263172 250.92731111 -53.36203833 248.40786315 -59.88848495 246.42674637 C-62.33616317 245.93205996 -64.59882524 245.8678792 -67.09674072 245.85955811 C-68.12561905 245.85384796 -69.15449738 245.84813782 -70.21455383 245.84225464 C-71.8993409 245.84057785 -71.8993409 245.84057785 -73.61816406 245.83886719 C-74.80558701 245.83390228 -75.99300995 245.82893738 -77.21641541 245.82382202 C-80.47074996 245.81172544 -83.72504862 245.80425821 -86.97940159 245.79981136 C-89.0150664 245.79687581 -91.05072564 245.79277006 -93.08638763 245.78830719 C-99.4626536 245.77463846 -105.83890676 245.76496916 -112.21518636 245.7611053 C-119.56221313 245.7566281 -126.90905353 245.73909345 -134.25602365 245.7101047 C-139.94365956 245.68844647 -145.63124321 245.67839879 -151.3189199 245.67706418 C-154.71179361 245.67601897 -158.10449199 245.67017218 -161.49732208 245.65224457 C-165.28644372 245.63516579 -169.07511316 245.63706924 -172.86425781 245.64355469 C-173.97935226 245.6343399 -175.09444672 245.62512512 -176.24333191 245.6156311 C-183.6212861 245.65513373 -189.50426013 246.35687961 -195.5625 250.9375 C-197.8652278 253.83067083 -199.56469332 256.65979901 -201.375 259.875 C-206.59677289 269.04686401 -213.08828577 275.41218206 -223.29296875 278.75 C-233.24856973 281.21748114 -243.21649109 280.32253498 -252.48828125 275.78125 C-261.91410923 269.92063157 -268.9764911 261.46318924 -271.578125 250.58203125 C-273.21874378 240.54083665 -272.22785478 230.17529146 -266.36328125 221.609375 C-265.30693563 220.27970919 -264.21421291 218.97743604 -263.07421875 217.71875 C-261.80038936 216.05935646 -261.80038936 216.05935646 -262.15234375 214.04296875 C-263.12816245 211.69111079 -264.37083171 209.86669998 -265.875 207.8125 C-271.61459067 199.32728783 -273.16865952 191.22878284 -272 181 C-271.35238935 179.0207562 -270.64347796 177.06052246 -269.875 175.125 C-268.05971286 170.32534497 -267.99145368 167.13824697 -268.86862183 162.10142517 C-270.11514918 154.13877422 -270.27019151 146.30785946 -270.22705078 138.25219727 C-270.2264848 136.74261482 -270.22680686 135.23303183 -270.22793579 133.72344971 C-270.22850303 129.6768965 -270.21685223 125.63046503 -270.20278788 121.58393979 C-270.19017409 117.33590919 -270.18910171 113.08787493 -270.18673706 108.83982849 C-270.18055327 100.81858491 -270.16418502 92.79739669 -270.14403808 84.77617735 C-270.12158181 75.63453603 -270.11066133 66.49289188 -270.10064721 57.35122979 C-270.07981557 38.56745441 -270.04429167 19.78373372 -270 1 C-262.41 1 -254.82 1 -247 1 C-246.97494385 3.73192627 -246.9498877 6.46385254 -246.92407227 9.27856445 C-246.80709804 21.9565771 -246.68594514 34.63454879 -246.5625 47.3125 C-246.55147877 48.4446909 -246.54045753 49.57688179 -246.52910233 50.7433815 C-246.2023281 84.16676407 -245.81565562 117.58434656 -245 151 C-244.34 150.67 -243.68 150.34 -243 150 C-240.40390789 149.87485206 -237.84629533 149.81482643 -235.25 149.8125 C-234.54617187 149.80025391 -233.84234375 149.78800781 -233.1171875 149.77539062 C-232.42367187 149.77345703 -231.73015625 149.77152344 -231.015625 149.76953125 C-230.07638184 149.76336792 -230.07638184 149.76336792 -229.11816406 149.75708008 C-227 150 -227 150 -221 152 C-221 133.85 -221 115.7 -221 97 C-215.39 97 -209.78 97 -204 97 C-204 116.8 -204 136.6 -204 157 C-205.98 157.33 -207.96 157.66 -210 158 C-209.52949219 158.50789062 -209.05898437 159.01578125 -208.57421875 159.5390625 C-207.64029297 160.57160156 -207.64029297 160.57160156 -206.6875 161.625 C-206.07261719 162.29789063 -205.45773438 162.97078125 -204.82421875 163.6640625 C-202.7743205 166.28898574 -201.45168765 169.01070484 -200 172 C-180.15517185 172.23362772 -160.3106228 172.40995508 -140.46470451 172.51812172 C-131.24976501 172.56968131 -122.03568004 172.6399687 -112.82128906 172.75439453 C-104.78971131 172.85408443 -96.75875235 172.91858546 -88.72657311 172.94088495 C-84.47338832 172.95392066 -80.22197368 172.98453537 -75.96935654 173.05730057 C-71.96493542 173.12526284 -67.96301 173.14610277 -63.95806694 173.13107681 C-62.48979679 173.13382463 -61.02144197 173.15367761 -59.55367088 173.19205475 C-55.19377612 173.30044446 -51.18816278 173.27559031 -47 172 C-44.05054034 168.99871272 -42.60787793 165.84111126 -41 162 C-39.70852555 160.30069152 -38.3978672 158.61292369 -37 157 C-37.886875 156.938125 -38.77375 156.87625 -39.6875 156.8125 C-43.85755217 155.78965702 -45.12809954 154.15208587 -48 151 C-49.12599345 149.91649687 -50.27295695 148.85445957 -51.4375 147.8125 C-51.97246094 147.32394531 -52.50742187 146.83539063 -53.05859375 146.33203125 C-59.3030828 142.04758303 -66.57843333 142.65124281 -73.83203125 142.609375 C-80.41377117 142.43228783 -80.41377117 142.43228783 -83.55859375 140.11328125 C-85.28026349 137.58909879 -85.92521606 136.06614139 -86 133 C-83.88146962 128.63098924 -80.80800846 125.73968081 -77.125 122.6875 C-76.55563721 122.21328613 -75.98627441 121.73907227 -75.3996582 121.25048828 C-58.54776754 107.51452029 -58.54776754 107.51452029 -49 108 C-45.05299403 108.60896663 -42.13514312 109.72981338 -39.43212891 112.75439453 C-35.24762604 118.87322981 -33.20880176 124.82303262 -31.5 132 C-31.22414063 133.02867187 -30.94828125 134.05734375 -30.6640625 135.1171875 C-29.00928725 141.82158619 -28.96153482 146.38876156 -31 153 C-30.40638672 152.76958008 -29.81277344 152.53916016 -29.20117188 152.30175781 C-20.95778335 149.21142814 -9.45056588 148.18314471 -1 151 C-1.0825 149.824375 -1.165 148.64875 -1.25 147.4375 C-1.24189422 142.82530877 0.44378748 139.74361446 3 136 C9.0344584 127.00384423 12.61567883 118.64606507 10.56640625 107.6796875 C9.10548872 102.32601457 6.84895594 99.34790158 2.5234375 95.8984375 C-1.12065835 91.35733345 -0.13917726 83.84375882 -0.11352539 78.21899414 C-0.11367142 77.36941132 -0.11381744 76.51982849 -0.1139679 75.64450073 C-0.11327554 72.85802589 -0.10551507 70.0716193 -0.09765625 67.28515625 C-0.09578966 65.34459978 -0.09436689 63.40404283 -0.09336853 61.46348572 C-0.08956233 56.37212813 -0.07974832 51.28079937 -0.06866455 46.18945312 C-0.05840956 40.98763417 -0.05386217 35.78581054 -0.04882812 30.58398438 C-0.03812427 20.3893103 -0.02107075 10.19465755 0 0 Z M-259.6015625 167.07421875 C-265.19851369 174.7817521 -266.94168553 183.63773513 -266 193 C-264.28629986 200.13859805 -260.82184912 204.82473435 -255.609375 209.89453125 C-254 212 -254 212 -253.53125 214.5 C-254.14035015 217.74853413 -255.3956355 218.89757979 -257.75 221.1875 C-263.36918152 227.21516812 -266.12306971 233.15681273 -266.5 241.4375 C-266.07211103 251.22373481 -262.1684475 260.27469289 -255 267 C-246.75709883 273.17579592 -238.00462472 274.43503834 -228.00830078 273.33251953 C-219.89874714 271.98979986 -214.41314913 268.10755896 -209.5625 261.625 C-208.34779287 259.76751034 -207.15839587 257.89311918 -206 256 C-205.2265625 254.82050781 -205.2265625 254.82050781 -204.4375 253.6171875 C-202.56465494 250.73343175 -201.09265426 248.27796279 -200 245 C-197.9375 244 -197.9375 244 -195 243 C-193.90171875 242.4949292 -192.8034375 241.9898584 -191.671875 241.46948242 C-185.71597876 239.24261944 -179.59606639 239.52042141 -173.3125 239.48828125 C-172.01425293 239.47033005 -170.71600586 239.45237885 -169.37841797 239.43388367 C-165.9525042 239.38667401 -162.52665492 239.35667826 -159.1005249 239.33044434 C-155.59423082 239.30049081 -152.08815841 239.25401196 -148.58203125 239.20898438 C-141.72148111 239.12328266 -134.86085688 239.05579139 -128 239 C-128.65121826 238.40453369 -129.30243652 237.80906738 -129.97338867 237.19555664 C-132.72012669 234.21984106 -132.44388177 232.41972665 -132.3125 228.4375 C-132.28800781 227.30183594 -132.26351562 226.16617188 -132.23828125 224.99609375 C-132 222 -132 222 -131 219 C-131.33 218.34 -131.66 217.68 -132 217 C-132.57633084 209.85349758 -132.57633084 209.85349758 -130.46484375 206.7265625 C-127.04990287 204.3344803 -124.19985351 204.77960157 -120.25 205.25 C-119.20392578 205.34861328 -119.20392578 205.34861328 -118.13671875 205.44921875 C-116.42252737 205.61359327 -114.71088977 205.80422654 -113 206 C-114 209 -114 209 -116 210 C-116.68931344 212.34907875 -116.68931344 212.34907875 -117.125 215.0625 C-117.37636719 216.44115234 -117.37636719 216.44115234 -117.6328125 217.84765625 C-117.75398437 218.55792969 -117.87515625 219.26820313 -118 220 C-122.455 220.99 -122.455 220.99 -127 222 C-127 222.99 -127 223.98 -127 225 C-126.38511719 225.03738281 -125.77023438 225.07476562 -125.13671875 225.11328125 C-124.32847656 225.17902344 -123.52023438 225.24476563 -122.6875 225.3125 C-121.88699219 225.37050781 -121.08648437 225.42851562 -120.26171875 225.48828125 C-117.59087341 226.09256577 -116.60931877 226.8054744 -115 229 C-115.07944741 232.73402834 -115.48050126 234.44698521 -118.05859375 237.19140625 C-118.69925781 237.78824219 -119.33992187 238.38507813 -120 239 C-118.89912048 239.00879936 -118.89912048 239.00879936 -117.77600098 239.01777649 C-110.8322761 239.07587356 -103.88882195 239.14804682 -96.94541168 239.23571491 C-93.37639154 239.28028966 -89.80748214 239.31957324 -86.23828125 239.34643555 C-82.78860138 239.37259851 -79.33935072 239.4130901 -75.88993835 239.46318626 C-73.94483186 239.48779316 -71.99955885 239.49786607 -70.05432129 239.50764465 C-60.65106633 239.6626698 -53.56200569 240.9847682 -46 247 C-43.54579614 250.17602853 -41.7454702 253.47007878 -40 257.0625 C-35.9801369 265.14825516 -30.18470183 269.65407862 -21.734375 272.859375 C-12.707053 275.26233122 -4.2625655 273.85422911 3.84375 269.390625 C6.66902369 267.5685282 8.82474321 265.55912563 11 263 C11.680625 262.278125 12.36125 261.55625 13.0625 260.8125 C18.15965665 253.41340164 20.1903713 245.9340499 19 237 C17.06124548 227.94819907 12.11872611 221.75936197 6 215 C7.88196554 211.67213411 9.83724952 208.98282286 12.5 206.25 C17.92153659 200.12928004 19.59097218 193.64322108 19.27734375 185.5390625 C18.21417073 175.80578839 14.23761671 168.72194402 6.9765625 162.17578125 C-1.25313429 155.66454605 -9.6987022 154.85311529 -20 156 C-28.6217269 158.63358208 -34.93638717 163.6002473 -40 171 C-41.35070141 173.5568207 -42.57758756 176.14806326 -43.796875 178.76953125 C-46.41464915 183.62261254 -50.73168063 186.28991276 -55.77789497 188.37880325 C-60.59637883 189.72582622 -65.63613275 189.41378259 -70.60131836 189.38818359 C-71.85745438 189.39344055 -73.11359039 189.39869751 -74.40779114 189.40411377 C-77.83764567 189.41773506 -81.26722804 189.41251004 -84.69708705 189.40297651 C-88.29680888 189.3953512 -91.89650828 189.40243362 -95.49623108 189.40713501 C-101.54106809 189.41258494 -107.58579496 189.40542179 -113.63061523 189.39111328 C-120.6044851 189.37479555 -127.5780917 189.38007184 -134.55195516 189.3965925 C-140.55389299 189.41023803 -146.55575188 189.41211187 -152.55770022 189.40427649 C-156.13605946 189.39961582 -159.71429526 189.39893046 -163.29264641 189.40888596 C-167.28501666 189.41921837 -171.27693835 189.40486839 -175.26928711 189.38818359 C-176.4451236 189.39425629 -177.62096008 189.40032898 -178.83242798 189.40658569 C-187.39460825 189.34042133 -194.65956182 188.32939212 -201 182 C-202.4060904 179.73647017 -203.65981858 177.54457613 -204.875 175.1875 C-210.3169134 165.2218032 -216.19881902 159.60039366 -227 156 C-239.84614421 154.74244685 -250.5589577 157.12735347 -259.6015625 167.07421875 Z " fill="#040404" transform="translate(321,123)"/>
<path d="M0 0 C6.33047351 3.414468 9.96253072 9.37305631 13.796875 15.2578125 C14.52648437 16.35480469 15.25609375 17.45179688 16.0078125 18.58203125 C23.23111399 29.808137 23.23111399 29.808137 23.796875 36.2578125 C22.7412182 39.02262792 21.8996934 41.1549941 19.796875 43.2578125 C13.61795331 44.08166872 9.16596578 41.9722552 3.56640625 39.44921875 C-3.4097602 36.44818805 -9.62371523 36.68755736 -16.734375 39.18359375 C-20.56725329 40.85138098 -24.0877637 43.02756396 -27.625 45.24609375 C-30.203125 46.2578125 -30.203125 46.2578125 -32.9140625 45.58984375 C-36.23176609 43.65923466 -36.99687173 41.87657231 -38.203125 38.2578125 C-37.90740154 31.99504687 -36.32873831 27.78299703 -33.140625 22.4453125 C-32.7379541 21.7553418 -32.3352832 21.06537109 -31.92041016 20.35449219 C-16.55548859 -5.5772036 -16.55548859 -5.5772036 0 0 Z " fill="#030303" transform="translate(186.203125,237.7421875)"/>
<path d="M0 0 C4.61762777 3.43865898 5.72161389 6.49785423 7 12 C7.19272369 14.73410672 7.30429934 17.36277706 7.30078125 20.09375 C7.30506638 20.84410522 7.3093515 21.59446045 7.31376648 22.36755371 C7.31947482 23.94408159 7.32003603 25.52063579 7.31567383 27.09716797 C7.31250842 29.49362468 7.33603407 31.88885119 7.36132812 34.28515625 C7.36360114 35.82551929 7.3643046 37.36588562 7.36328125 38.90625 C7.372491 39.6137439 7.38170074 40.32123779 7.39118958 41.0501709 C7.34425079 46.1564426 6.31594606 49.54463343 4 54 C0.36590352 57.45239166 -2.27679818 58.86994703 -7.3125 59.25 C-12.00603829 58.93179401 -14.9123315 57.4166322 -18.75 54.8125 C-23.18138838 48.38698685 -22.30786534 39.49266399 -22.26074219 32.07348633 C-22.25004273 30.07049937 -22.26169555 28.06743425 -22.2734375 26.06445312 C-22.23844126 8.57508154 -22.23844126 8.57508154 -17.75 2.5625 C-12.12398942 -2.67991895 -6.92054602 -2.68139237 0 0 Z " fill="#FEFEFE" transform="translate(207,24)"/>
<path d="M0 0 C4.353586 3.05677315 5.55180839 5.92917363 6.60522461 11.05932617 C7.37751077 16.81207002 7.33292688 22.59908552 7.31567383 28.39355469 C7.31249653 30.6274422 7.33610073 32.86002373 7.36132812 35.09375 C7.36360021 36.53385252 7.36430504 37.97395855 7.36328125 39.4140625 C7.36626221 40.7026416 7.36924316 41.9912207 7.37231445 43.31884766 C6.8292193 48.68854521 5.49299534 52.61624822 1.4375 56.375 C-2.72560997 59.15040665 -6.05806744 59.49788127 -11 59 C-16.23922244 57.186423 -18.408406 54.851709 -21 50 C-21.55425348 46.80458298 -21.53794126 43.67425774 -21.49609375 40.4375 C-21.49754898 39.52798584 -21.49900421 38.61847168 -21.50050354 37.68139648 C-21.49884908 35.76510402 -21.48733875 33.84879763 -21.46655273 31.93261719 C-21.43759102 29.00918802 -21.44595494 26.08757363 -21.45898438 23.1640625 C-21.45274637 21.29686624 -21.44435494 19.42967567 -21.43359375 17.5625 C-21.43652939 16.69359131 -21.43946503 15.82468262 -21.44248962 14.92944336 C-21.36465233 9.89100024 -20.81310143 6.35424323 -18 2 C-11.95826048 -2.49257554 -6.912911 -2.4565523 0 0 Z " fill="#FEFEFE" transform="translate(132,24)"/>
<path d="M0 0 C3.11203664 2.62875566 5.79746432 5.9438173 6.20532227 10.08447266 C6.24197998 10.9357373 6.2786377 11.78700195 6.31640625 12.6640625 C6.37973145 14.08912109 6.37973145 14.08912109 6.44433594 15.54296875 C6.48333008 16.56003906 6.52232422 17.57710937 6.5625 18.625 C6.6027832 19.66011719 6.64306641 20.69523437 6.68457031 21.76171875 C6.79808497 24.84092303 6.90067156 27.92030895 7 31 C7.04519775 32.25635254 7.04519775 32.25635254 7.09130859 33.53808594 C7.16317163 35.69214597 7.21197871 37.84511057 7.25 40 C7.27578125 41.19625 7.3015625 42.3925 7.328125 43.625 C6.82329154 48.81757269 5.36067199 52.70736161 1.5 56.375 C-2.71560036 59.11514024 -6.04039665 59.41330028 -11 59 C-14.51683601 57.67397986 -17.28288843 55.88308836 -19.67822266 52.93334961 C-21.52638142 48.83182992 -21.43014802 45.20392265 -21.3984375 40.75390625 C-21.40130768 39.86517319 -21.40417786 38.97644012 -21.40713501 38.06077576 C-21.40917181 36.18561158 -21.40366883 34.31042598 -21.39111328 32.43530273 C-21.37507304 29.57552197 -21.39096504 26.7171585 -21.41015625 23.85742188 C-21.40817338 22.0312469 -21.40432879 20.2050728 -21.3984375 18.37890625 C-21.40451019 17.52873428 -21.41058289 16.67856232 -21.4168396 15.80262756 C-21.3579272 10.79221883 -20.76375326 7.34464003 -18 3 C-12.27736265 -2.42916877 -7.22986988 -2.8739055 0 0 Z " fill="#FEFEFE" transform="translate(280,24)"/>
<path d="M0 0 C5.28 0 10.56 0 16 0 C16.02465958 7.79622159 16.04284068 15.59242064 16.05493164 23.38867188 C16.05997042 26.04264725 16.06680151 28.69661984 16.07543945 31.35058594 C16.08752489 35.15821011 16.09323275 38.96579769 16.09765625 42.7734375 C16.10281754 43.96617279 16.10797882 45.15890808 16.11329651 46.38778687 C16.11340981 48.03927231 16.11340981 48.03927231 16.11352539 49.72412109 C16.115746 50.69674896 16.11796661 51.66937683 16.12025452 52.67147827 C16 55 16 55 15 57 C10.05 57 5.1 57 0 57 C0 38.19 0 19.38 0 0 Z " fill="#010101" transform="translate(101,143)"/>
<path d="M0 0 C5.61 0 11.22 0 17 0 C17 13.86 17 27.72 17 42 C8.40217391 45.68478261 8.40217391 45.68478261 4 45 C1.84863281 43.55761719 1.84863281 43.55761719 0 41 C-0.55582576 37.87668606 -0.46516762 34.80421375 -0.390625 31.640625 C-0.38496521 30.73624695 -0.37930542 29.8318689 -0.37347412 28.90008545 C-0.35111248 26.01618147 -0.30091686 23.13352739 -0.25 20.25 C-0.22993471 18.29298671 -0.21168399 16.33595392 -0.1953125 14.37890625 C-0.15124839 9.58545711 -0.08222252 4.79294035 0 0 Z " fill="#0C0C0C" transform="translate(286,142)"/>
<path d="M0 0 C0.76054687 0.09925781 1.52109375 0.19851562 2.3046875 0.30078125 C4.125 0.6875 4.125 0.6875 5.125 1.6875 C5.21368299 4.64455321 5.24020296 7.57815056 5.22265625 10.53515625 C5.2212413 11.4215831 5.21982635 12.30800995 5.21836853 13.22129822 C5.21275215 16.06423254 5.20019691 18.90708931 5.1875 21.75 C5.18248711 23.67252491 5.17792384 25.59505104 5.17382812 27.51757812 C5.16277741 32.24091549 5.14550183 36.96419458 5.125 41.6875 C-0.485 41.6875 -6.095 41.6875 -11.875 41.6875 C-11.875 28.4875 -11.875 15.2875 -11.875 1.6875 C-3.97229419 -0.57041595 -3.97229419 -0.57041595 0 0 Z " fill="#030303" transform="translate(159.875,142.3125)"/>
<path d="M0 0 C5.28 0 10.56 0 16 0 C16 17.49 16 34.98 16 53 C13.58826939 50.58826939 12.12241451 48.59066541 10.37426758 45.74731445 C9.01199398 43.86536637 9.01199398 43.86536637 6.8190918 42.33666992 C2.72407349 39.10644319 -0.09530048 36.27824418 -0.73339844 30.98925781 C-0.99579601 26.29617466 -0.78729021 21.6279338 -0.5625 16.9375 C-0.51728523 15.29242776 -0.47623291 13.64723556 -0.43945312 12.00195312 C-0.34863551 7.99588725 -0.17271978 4.00667251 0 0 Z " fill="#030303" transform="translate(200,143)"/>
<path d="M0 0 C5.28 0 10.56 0 16 0 C16.25496734 4.09493001 16.4727267 8.1693829 16.60424805 12.26806641 C16.65907963 13.65573954 16.7337928 15.04279156 16.82983398 16.42822266 C17.24726417 22.61154675 17.52104345 27.94443213 13.67822266 33.13769531 C9.28496634 37.23669122 5.60978236 39.75608705 0 42 C0 28.14 0 14.28 0 0 Z " fill="#040404" transform="translate(245,143)"/>
<path d="M0 0 C3.99777739 2.55413556 5.22801168 6.38903141 6.51953125 10.77734375 C7.81780468 16.78317775 4.99269879 21.53255141 2.44921875 26.828125 C0.81948527 29.27052881 -0.25006063 30.04789333 -3 31 C-6 30.9375 -6 30.9375 -9 30 C-14.2111564 24.50715947 -14.28365423 20.5655481 -14.21875 13.20703125 C-13.88046767 8.24757072 -12.11687392 5.51575747 -9.25 1.625 C-6.01327155 -0.71263722 -3.89584824 -0.55654975 0 0 Z " fill="#060606" transform="translate(195,197)"/>
<path d="M0 0 C4.27644875 3.92970966 5.65602125 8.54210834 6.22265625 14.23828125 C6.41526519 19.22099066 5.89172722 22.76568514 3 27 C0.5339578 28.95582657 -0.77714083 29 -3.9375 29 C-8.60139732 27.47709475 -10.6262213 24.25280493 -13.1171875 20.16796875 C-15.08547561 15.33434087 -15.06256249 8.78988082 -13.20703125 3.91796875 C-9.73976715 -1.54197587 -5.8938354 -1.4476087 0 0 Z " fill="#050505" transform="translate(166,201)"/>
<path d="M0 0 C3.875 0.6875 3.875 0.6875 6.3125 2.25 C8.47601226 5.62507913 8.875 7.64855583 8.875 11.6875 C7.38003096 17.89358856 4.87892519 22.7948697 -0.25390625 26.69140625 C-3.3491981 28.33921298 -5.73151255 28.27483437 -9.125 27.6875 C-11.27254559 26.07429632 -12.02304352 25.05660828 -12.7421875 22.453125 C-13.52480999 14.81662681 -11.99433938 9.97519041 -7.4375 3.75 C-5.08448379 1.14466535 -3.52729231 0.18391841 0 0 Z " fill="#060606" transform="translate(213.125,221.3125)"/>
<path d="M0 0 C3.40033589 0.94453775 4.27007591 1.29438509 6.375 3.9375 C8.81533424 10.1523699 8.60390637 15.58486167 6.34765625 21.796875 C5.03800179 24.67916673 4.13167586 26.29839544 1.375 27.9375 C-1.40875179 28.47703128 -3.84534653 28.51397844 -6.625 27.9375 C-9.59358157 25.73009319 -10.45365791 24.45152627 -11.625 20.9375 C-12.13349203 14.70847262 -12.35944209 9.21722848 -8.625 3.9375 C-5.62013899 0.6822339 -4.48247818 -0.07728411 0 0 Z " fill="#060606" transform="translate(270.625,193.0625)"/>
<path d="M0 0 C5.28335311 5.0432007 8.09669568 10.96166523 8.3125 18.3125 C8 22 8 22 6 25 C2.91182947 25.88416501 0.11677877 25.69482329 -3 25 C-8.11997458 21.92801525 -12.1305533 17.72518052 -14 12 C-14.65792732 7.78593386 -14.48465057 4.78546817 -12.1875 1.0625 C-7.99011039 -2.89503878 -5.08953409 -2.01826352 0 0 Z " fill="#050505" transform="translate(147,227)"/>
<path d="M0 0 C1.65 0.33 3.3 0.66 5 1 C5.02505615 1.77190674 5.0501123 2.54381348 5.07592773 3.33911133 C5.19184007 6.83041181 5.31458824 10.32143922 5.4375 13.8125 C5.47681641 15.02744141 5.51613281 16.24238281 5.55664062 17.49414062 C5.59853516 18.65751953 5.64042969 19.82089844 5.68359375 21.01953125 C5.72025146 22.09307861 5.75690918 23.16662598 5.79467773 24.27270508 C5.89541847 27.09311553 5.89541847 27.09311553 7 30 C2.25 31.125 2.25 31.125 0 30 C-0.66 30.33 -1.32 30.66 -2 31 C-4.875 31.3125 -4.875 31.3125 -8 31 C-10.30275556 29.1329009 -11.67823871 27.64352259 -13 25 C-13.12148305 23.37834248 -13.17543652 21.75115673 -13.1875 20.125 C-13.20167969 19.26132812 -13.21585938 18.39765625 -13.23046875 17.5078125 C-12.98550176 14.84223951 -12.40372054 13.26099273 -11 11 C-8.18134926 8.80771609 -6.88906015 9.01109399 -3.25 9.375 C-2.1775 9.58125 -1.105 9.7875 0 10 C0 9.0925 0 8.185 0 7.25 C0 4.83333333 0 2.41666667 0 0 Z " fill="#090909" transform="translate(268,318)"/>
<path d="M0 0 C3.04974127 1.31880704 4.43121161 2.2129061 6.3125 5 C7.36984488 9.97343703 6.7018415 13.94980948 4.125 18.3125 C1.12370657 22.53623036 -1.47335493 25.59332029 -6.75 26.5625 C-9.6875 26 -9.6875 26 -12.0625 24.125 C-14.37868995 19.67078856 -14.43351514 15.92216178 -13.6875 11 C-12.3335707 6.76997235 -9.97481524 3.89103861 -6.25 1.5 C-2.6875 0 -2.6875 0 0 0 Z " fill="#070707" transform="translate(297.6875,203)"/>
<path d="M0 0 C2.22855574 -0.0814222 4.45797655 -0.13938079 6.6875 -0.1875 C8.54955078 -0.23970703 8.54955078 -0.23970703 10.44921875 -0.29296875 C14.2457708 0.02027812 16.01467371 0.69242347 19 3 C21.34168764 6.51253146 21.49623677 7.86469356 21 12 C19.20006226 14.69990662 17.916227 16.5418865 15 18 C11.99525503 18.13559318 9.00931153 18.04299016 6 18 C6.66 21.3 7.32 24.6 8 28 C5.36 28 2.72 28 0 28 C0 27.01 0 26.02 0 25 C0.66 25 1.32 25 2 25 C1.8608331 21.58302762 1.71250415 18.16651243 1.5625 14.75 C1.52318359 13.78191406 1.48386719 12.81382812 1.44335938 11.81640625 C1.40146484 10.88183594 1.35957031 9.94726562 1.31640625 8.984375 C1.27974854 8.12553711 1.24309082 7.26669922 1.20532227 6.38183594 C1.01296486 4.15039857 0.61153756 2.15017476 0 0 Z " fill="#0D0D0D" transform="translate(100,320)"/>
<path d="M0 0 C3.74305054 3.63907692 5.94125725 7.68429791 6.03515625 12.984375 C5.7621262 16.52710638 5.0850783 18.84293237 3.375 22 C1 24 1 24 -2.4375 24.625 C-6.84775094 23.85127177 -8.25741731 22.46856046 -11 19 C-12.53842912 14.38471264 -12.52848638 9.8197958 -12 5 C-8.69507091 -0.50821515 -6.19131002 -1.73356681 0 0 Z " fill="#050505" transform="translate(249,208)"/>
<path d="M0 0 C2.31 0 4.62 0 7 0 C16.61702128 20.85106383 16.61702128 20.85106383 19 28 C16.36 28 13.72 28 11 28 C10.67 25.69 10.34 23.38 10 21 C6.7 20.67 3.4 20.34 0 20 C0 22.64 0 25.28 0 28 C-2.97 28 -5.94 28 -9 28 C-8.34 26.68 -7.68 25.36 -7 24 C-5.73124494 21.06569226 -4.55560189 18.0957015 -3.375 15.125 C-2.88773438 13.93970703 -2.88773438 13.93970703 -2.390625 12.73046875 C-0.64409162 8.32010504 0.41943132 4.8312274 0 0 Z " fill="#090909" transform="translate(167,320)"/>
<path d="M0 0 C0.99 0.66 1.98 1.32 3 2 C2.71180764 8.62842427 0.07131004 13.78452788 -4 19 C-7.99268104 21.61894169 -11.34803436 21.37515852 -16 21 C-18.47142556 17.29286166 -18.66909211 14.30014075 -18 10 C-13.5396415 1.71647707 -9.44839892 -1.8559355 0 0 Z " fill="#060606" transform="translate(311,235)"/>
<path d="M0 0 C2.671875 1.4765625 2.671875 1.4765625 5 4 C5.74610295 6.9126498 5.79014079 9.75386554 5.8125 12.75 C5.83763672 13.54277344 5.86277344 14.33554687 5.88867188 15.15234375 C5.9473673 17.10103195 5.9765898 19.05056859 6 21 C4.88625 20.979375 3.7725 20.95875 2.625 20.9375 C-0.83215921 20.73619282 -0.83215921 20.73619282 -3 22 C-8.21653972 22.44396083 -8.21653972 22.44396083 -10.875 20.9375 C-12.66235303 17.85928089 -12.43386742 15.47093932 -12 12 C-9.68731879 9.10914849 -7.26458498 8.77986502 -3.75 8.3125 C-2.5125 8.209375 -1.275 8.10625 0 8 C-0.33 7.01 -0.66 6.02 -1 5 C-3.41619823 4.74969023 -3.41619823 4.74969023 -6 5 C-6.99 6.485 -6.99 6.485 -8 8 C-8.99 7.67 -9.98 7.34 -11 7 C-11 5.35 -11 3.7 -11 2 C-7.34148709 -0.34144827 -4.27169964 -0.44965259 0 0 Z " fill="#0B0B0B" transform="translate(289,327)"/>
<path d="M0 0 C2.4375 2.1875 2.4375 2.1875 4 5 C4 6.98 4 8.96 4 11 C-2.435 11.495 -2.435 11.495 -9 12 C-8.67 12.99 -8.34 13.98 -8 15 C-5.6984589 15.77802187 -5.6984589 15.77802187 -3 16 C-1.63838689 15.03886134 -0.30144802 14.04115841 1 13 C1.99 13.33 2.98 13.66 4 14 C3.64393309 16.58148508 3.16671807 17.82045747 1.375 19.75 C-1.97963578 21.51559778 -4.25822943 21.45951568 -8 21 C-10.75329021 19.20437595 -12.52627461 17.94745078 -14 15 C-14.43808718 10.71180044 -14.44926618 7.05577552 -12.75 3.0625 C-8.90127052 -1.4735026 -5.7070625 -1.52867746 0 0 Z " fill="#0B0B0B" transform="translate(137,328)"/>
<path d="M0 0 C2.8314835 2.54833515 3.88164598 3.95848464 4.3125 7.75 C4 10 4 10 3 11 C0.81360547 11.07258946 -1.37500389 11.08373783 -3.5625 11.0625 C-5.35880859 11.04896484 -5.35880859 11.04896484 -7.19140625 11.03515625 C-8.11824219 11.02355469 -9.04507813 11.01195312 -10 11 C-9.01 12.65 -8.02 14.3 -7 16 C-3.28111761 15.49287967 -0.26545761 14.88391785 3 13 C3.33 14.32 3.66 15.64 4 17 C0.96348352 19.31353637 -1.26030136 20.87923287 -5.0625 21.5 C-8.7107785 20.87901643 -10.36991687 19.5549379 -13 17 C-14.84862688 13.30274625 -14.47587094 9.03538558 -14 5 C-10.33039559 -0.9936872 -6.69229132 -1.93097734 0 0 Z " fill="#0B0B0B" transform="translate(225,328)"/>
<path d="M0 0 C1.65234375 1.109375 1.65234375 1.109375 3 3 C3.4765625 6.25 3.4765625 6.25 3.625 10 C3.81832492 15.09031732 3.81832492 15.09031732 5 20 C2.36 20 -0.28 20 -3 20 C-2.67 14.72 -2.34 9.44 -2 4 C-3.65 4.33 -5.3 4.66 -7 5 C-9.09740836 8.14611253 -9.25328219 8.91188078 -9.1875 12.5 C-9.18105469 13.2734375 -9.17460937 14.046875 -9.16796875 14.84375 C-9.0730565 17.18348849 -9.0730565 17.18348849 -8 20 C-10.64 20 -13.28 20 -16 20 C-16 13.4 -16 6.8 -16 0 C-13.33333333 0 -10.66666667 0 -8 0 C-5.06317146 -1.46841427 -3.13175678 -0.76696084 0 0 Z " fill="#080808" transform="translate(248,328)"/>
<path d="M0 0 C0 1.98 0 3.96 0 6 C1.32 6 2.64 6 4 6 C4 7.32 4 8.64 4 10 C2.68 10 1.36 10 0 10 C0 14.29 0 18.58 0 23 C1.32 22.34 2.64 21.68 4 21 C4.625 22.875 4.625 22.875 5 25 C4.34 25.66 3.68 26.32 3 27 C-0.5625 26.75 -0.5625 26.75 -4 26 C-5.50156874 22.99686252 -5.09281204 20.20932478 -5.0625 16.875 C-5.05347656 15.59367187 -5.04445312 14.31234375 -5.03515625 12.9921875 C-5.02355469 12.00476563 -5.01195312 11.01734375 -5 10 C-5.99 10 -6.98 10 -8 10 C-8 8.68 -8 7.36 -8 6 C-7.01 6 -6.02 6 -5 6 C-5 5.01 -5 4.02 -5 3 C-5.66 3 -6.32 3 -7 3 C-7 2.01 -7 1.02 -7 0 C-4.3333581 -1.33332095 -2.83319697 -0.67102033 0 0 Z " fill="#090909" transform="translate(152,322)"/>
<path d="M0 0 C1.9375 0.9375 1.9375 0.9375 3.25 2.625 C4.34189168 6.29772655 3.63279517 9.54690965 1.9375 12.9375 C-0.0425 12.9375 -2.0225 12.9375 -4.0625 12.9375 C-5.6534108 9.7556784 -5.45834434 6.40113796 -5.0625 2.9375 C-3.53223862 0.41256872 -2.95061152 -0.08941247 0 0 Z " fill="#FBFBFB" transform="translate(265.0625,331.0625)"/>
<path d="M0 0 C6.75 0.75 6.75 0.75 9 3 C8.625 6.125 8.625 6.125 8 9 C5.36 9.33 2.72 9.66 0 10 C0 6.7 0 3.4 0 0 Z " fill="#FFFFFF" transform="translate(107,324)"/>
<path d="M0 0 C1.4540625 0.0309375 1.4540625 0.0309375 2.9375 0.0625 C3.5625 2.875 3.5625 2.875 3.9375 6.0625 C2.9475 7.5475 2.9475 7.5475 1.9375 9.0625 C-0.625 9.3125 -0.625 9.3125 -3.0625 9.0625 C-4.0625 8.0625 -4.0625 8.0625 -4.1875 4.5625 C-4.02748906 0.08219365 -4.02748906 0.08219365 0 0 Z " fill="#FDFDFD" transform="translate(197.0625,331.9375)"/>
<path d="M0 0 C2.64 0 5.28 0 8 0 C8.625 1.875 8.625 1.875 9 4 C8.34 4.66 7.68 5.32 7 6 C3.375 5.625 3.375 5.625 0 5 C-0.33 4.01 -0.66 3.02 -1 2 C-0.67 1.34 -0.34 0.68 0 0 Z " fill="#F9F9F9" transform="translate(193,352)"/>
<path d="M0 0 C-1.0975223 2.99324263 -1.67682892 3.84610901 -4.625 5.25 C-5.40875 5.4975 -6.1925 5.745 -7 6 C-7.66 4.68 -8.32 3.36 -9 2 C-5.5647952 -0.29013653 -4.014669 -0.17842973 0 0 Z " fill="#F1F1F1" transform="translate(290,339)"/>
<path d="M0 0 C1.9451 2.91765 2.45276317 4.62537285 3 8 C1.02 8 -0.96 8 -3 8 C-1.125 1.125 -1.125 1.125 0 0 Z " fill="#F9F9F9" transform="translate(172,328)"/>
<path d="M0 0 C0.33 0.99 0.66 1.98 1 3 C-1.97 3 -4.94 3 -8 3 C-7.67 2.01 -7.34 1.02 -7 0 C-4.3333581 -1.33332095 -2.83319697 -0.67102033 0 0 Z " fill="#F8F8F8" transform="translate(136,332)"/>
<path d="M0 0 C0.639375 0.2475 1.27875 0.495 1.9375 0.75 C2.2675 1.74 2.5975 2.73 2.9375 3.75 C0.2975 3.75 -2.3425 3.75 -5.0625 3.75 C-4.7325 2.76 -4.4025 1.77 -4.0625 0.75 C-2.0625 -0.25 -2.0625 -0.25 0 0 Z " fill="#FFFFFF" transform="translate(221.0625,331.25)"/>
<path d="M0 0 C0.66 0.33 1.32 0.66 2 1 C-0.64 3.64 -3.28 6.28 -6 9 C-6 5.06368636 -4.57142871 3.87394974 -2 1 C-1.34 0.67 -0.68 0.34 0 0 Z " fill="#1C1C1C" transform="translate(169,239)"/>
</svg>
